<?xml version="1.0" standalone="no"?>
<!DOCTYPE svg PUBLIC "-//W3C//DTD SVG 20010904//EN"
 "http://www.w3.org/TR/2001/REC-SVG-20010904/DTD/svg10.dtd">
<svg version="1.0" xmlns="http://www.w3.org/2000/svg"
 width="2048.000000pt" height="2048.000000pt" viewBox="0 0 2048.000000 2048.000000"
 preserveAspectRatio="xMidYMid meet">

<g transform="translate(0.000000,2048.000000) scale(0.100000,-0.100000)"
fill="#000000" stroke="none">
<path d="M6110 15110 c-15 -15 -20 -34 -21 -72 0 -29 -4 -75 -9 -103 -6 -27
-14 -198 -20 -380 -6 -181 -15 -355 -20 -385 -5 -30 -14 -199 -20 -375 -5
-176 -14 -345 -20 -375 -5 -30 -14 -201 -20 -380 -5 -179 -14 -352 -20 -385
-5 -33 -14 -199 -20 -370 -5 -170 -14 -344 -20 -385 -6 -41 -15 -210 -20 -375
-5 -165 -16 -361 -24 -435 -8 -74 -17 -247 -21 -385 -3 -137 -12 -308 -20
-380 -7 -71 -17 -245 -20 -385 -4 -140 -13 -305 -20 -366 -8 -62 -17 -253 -20
-425 -4 -173 -13 -386 -21 -474 -8 -88 -19 -304 -25 -480 -5 -176 -14 -345
-19 -375 -5 -30 -14 -201 -19 -380 -6 -179 -14 -351 -20 -382 -19 -108 -25
-276 -11 -293 11 -13 147 -15 1180 -15 922 0 1170 3 1178 13 5 7 12 141 17
317 3 168 11 377 16 465 5 88 13 543 19 1010 5 468 14 924 20 1015 5 91 13
314 16 497 4 183 11 338 16 345 11 17 28 -7 28 -40 0 -12 9 -39 20 -59 11 -21
20 -50 20 -66 0 -15 9 -45 20 -67 11 -22 20 -50 20 -62 0 -13 9 -41 20 -63 11
-22 20 -48 20 -60 0 -11 9 -38 19 -61 10 -23 22 -61 26 -85 4 -24 13 -55 20
-69 7 -14 16 -48 20 -77 4 -29 15 -69 26 -90 10 -20 19 -47 19 -58 0 -11 9
-38 20 -60 11 -22 20 -49 20 -61 0 -12 9 -41 20 -65 11 -24 20 -56 20 -72 0
-15 9 -44 20 -64 11 -21 20 -48 20 -60 0 -13 9 -40 20 -60 11 -21 20 -49 20
-63 0 -14 9 -42 20 -63 11 -20 20 -49 20 -65 0 -15 9 -44 20 -65 11 -20 20
-47 20 -60 0 -12 8 -39 19 -59 10 -20 21 -56 25 -80 4 -24 13 -52 20 -63 7
-11 16 -42 21 -70 4 -27 13 -61 20 -75 7 -14 16 -47 20 -75 4 -27 12 -56 17
-63 6 -7 17 -36 24 -65 11 -46 19 -72 56 -182 6 -16 15 -48 20 -70 6 -22 19
-59 29 -83 10 -23 19 -52 19 -63 0 -11 9 -37 20 -59 11 -22 20 -52 20 -67 0
-16 9 -45 20 -66 11 -20 20 -49 20 -65 0 -15 9 -44 20 -65 11 -20 20 -47 20
-60 0 -12 9 -39 20 -60 11 -20 20 -49 20 -65 0 -15 9 -44 20 -65 11 -20 20
-47 20 -59 1 -13 8 -41 16 -63 9 -22 20 -64 25 -94 5 -29 15 -63 22 -75 6 -11
16 -39 22 -61 l10 -40 1022 -3 c1135 -2 1047 -8 1058 66 3 20 10 51 16 67 6
17 17 55 24 85 7 30 20 72 29 92 9 21 16 48 16 60 0 13 9 40 20 61 11 20 20
49 20 65 0 15 9 44 20 65 11 20 20 47 20 60 0 12 9 39 20 60 11 20 20 49 20
65 0 15 9 44 20 65 11 20 20 49 20 64 1 16 9 46 20 68 11 22 19 49 20 60 0 11
8 36 18 55 11 19 22 55 26 80 4 25 13 54 20 65 8 11 17 41 21 65 4 25 13 54
19 65 7 11 16 42 21 70 4 27 13 61 20 75 7 14 18 48 23 75 6 28 18 73 27 100
10 28 22 64 27 80 6 17 15 48 20 70 5 22 18 57 29 77 10 20 19 49 19 63 0 14
9 43 20 65 11 22 20 52 20 67 0 16 9 45 20 66 11 20 20 49 20 64 0 16 9 43 20
61 11 18 20 45 20 60 0 15 8 43 18 62 11 19 22 55 26 80 4 25 13 54 20 65 7
11 16 39 20 63 3 24 13 53 20 65 8 12 18 45 21 72 4 28 12 59 18 70 6 11 16
45 23 75 7 30 20 78 29 105 10 28 22 64 27 80 6 17 15 48 20 70 6 22 19 56 29
76 11 20 19 49 19 63 0 15 9 44 20 66 11 22 20 52 20 67 0 15 7 39 15 53 8 14
19 37 26 53 13 33 27 35 33 5 3 -13 7 -306 10 -653 3 -346 10 -697 16 -780 5
-82 14 -517 19 -965 11 -907 23 -1217 49 -1237 12 -10 263 -13 1173 -13 1039
0 1159 2 1173 16 18 18 18 20 6 89 -6 28 -14 196 -20 375 -6 179 -15 350 -20
380 -5 30 -14 199 -20 375 -6 176 -15 345 -20 375 -5 30 -14 206 -20 390 -5
184 -14 369 -20 410 -6 41 -15 237 -20 435 -6 198 -17 425 -25 505 -8 80 -17
258 -21 395 -3 138 -12 302 -19 365 -8 63 -17 230 -20 370 -4 140 -13 316 -21
390 -8 75 -19 273 -24 440 -6 168 -14 330 -20 360 -5 30 -12 172 -15 315 -3
143 -13 319 -21 390 -8 72 -19 270 -25 440 -5 171 -13 337 -19 370 -6 33 -15
204 -20 380 -6 176 -15 345 -20 375 -5 30 -12 135 -16 233 -5 135 -11 182 -22
193 -12 13 -207 14 -1414 12 l-1400 -3 -19 -24 c-10 -13 -19 -34 -19 -48 0
-13 -9 -41 -20 -63 -11 -22 -20 -50 -20 -62 0 -13 -9 -40 -20 -61 -11 -20 -20
-47 -20 -60 0 -12 -8 -38 -19 -57 -10 -19 -21 -53 -25 -74 -4 -21 -13 -48 -21
-60 -7 -12 -16 -39 -20 -61 -4 -21 -13 -51 -20 -65 -7 -14 -16 -48 -20 -75 -4
-28 -13 -59 -20 -70 -6 -11 -15 -37 -19 -57 -4 -21 -16 -57 -26 -80 -11 -24
-20 -52 -20 -63 0 -12 -9 -38 -20 -60 -11 -22 -20 -50 -20 -62 0 -13 -9 -40
-20 -60 -11 -21 -20 -49 -20 -63 0 -14 -9 -38 -20 -55 -11 -16 -20 -42 -20
-58 0 -15 -9 -44 -20 -64 -11 -21 -20 -48 -20 -61 0 -12 -9 -40 -20 -62 -11
-22 -20 -49 -20 -61 0 -12 -8 -40 -19 -63 -24 -55 -50 -131 -63 -186 -6 -25
-15 -50 -20 -57 -5 -7 -16 -36 -23 -65 -7 -29 -20 -71 -29 -93 -8 -22 -15 -51
-16 -65 0 -14 -6 -34 -14 -45 -7 -11 -17 -40 -21 -64 -4 -24 -16 -62 -26 -85
-10 -23 -19 -51 -19 -64 0 -12 -9 -39 -20 -59 -11 -21 -20 -49 -20 -63 0 -14
-9 -38 -20 -55 -11 -16 -20 -41 -20 -55 0 -14 -9 -42 -20 -63 -11 -20 -20 -48
-20 -62 0 -14 -9 -42 -20 -62 -11 -21 -20 -49 -20 -63 0 -14 -9 -42 -20 -63
-11 -20 -20 -45 -20 -55 0 -10 -8 -34 -19 -54 -10 -20 -21 -55 -25 -78 -3 -23
-13 -51 -20 -63 -8 -12 -17 -40 -21 -62 -3 -22 -13 -49 -20 -61 -7 -11 -16
-43 -20 -70 -4 -27 -13 -58 -20 -69 -7 -11 -16 -41 -20 -65 -4 -25 -13 -55
-21 -67 -7 -12 -17 -40 -20 -63 -4 -23 -15 -58 -25 -78 -11 -20 -19 -44 -19
-54 0 -10 -9 -35 -20 -55 -11 -21 -20 -48 -20 -61 0 -12 -9 -40 -20 -62 -11
-22 -20 -50 -20 -64 0 -34 -10 -56 -25 -56 -21 0 -55 50 -55 82 0 16 -9 46
-20 68 -11 22 -20 49 -20 60 0 11 -8 37 -19 58 -10 20 -22 55 -26 77 -4 22
-11 45 -17 52 -5 7 -15 36 -23 65 -7 29 -18 67 -24 83 -25 73 -43 134 -52 180
-5 28 -16 61 -23 75 -8 14 -18 43 -22 65 -4 22 -15 58 -25 80 -10 22 -19 50
-19 63 0 12 -9 39 -20 59 -11 21 -20 47 -20 58 -1 11 -9 38 -20 60 -11 22 -19
50 -20 63 0 12 -9 40 -20 62 -11 22 -20 51 -20 65 0 14 -9 42 -20 62 -11 21
-20 49 -20 63 0 14 -9 39 -20 55 -11 17 -20 41 -20 55 0 14 -9 45 -20 69 -11
24 -20 53 -20 65 0 12 -8 37 -18 56 -11 19 -22 55 -26 80 -4 25 -13 54 -20 65
-8 11 -17 45 -21 75 -4 30 -13 64 -21 75 -7 11 -16 38 -19 60 -4 22 -13 50
-21 62 -7 12 -17 41 -20 65 -4 24 -15 59 -26 78 -10 19 -18 44 -18 55 0 12 -9
38 -20 60 -11 22 -20 50 -20 62 0 13 -9 40 -20 60 -11 21 -20 49 -20 63 0 14
-9 42 -20 63 -11 20 -20 46 -20 57 0 12 -9 38 -20 60 -11 22 -20 50 -20 62 0
13 -9 41 -19 63 -10 22 -21 58 -25 79 -4 21 -13 48 -21 60 -7 12 -16 39 -20
60 -3 21 -12 48 -20 60 -7 12 -16 41 -20 66 -4 25 -13 56 -20 70 -7 14 -16 48
-20 75 -4 28 -13 60 -21 72 -7 12 -17 40 -20 63 -4 23 -15 58 -25 78 -11 20
-19 44 -19 53 0 9 -9 36 -20 60 -11 24 -20 54 -20 67 0 12 -9 39 -20 59 -11
21 -20 48 -20 61 0 31 -25 77 -52 96 -20 14 -168 16 -1405 16 -1370 0 -1383 0
-1403 -20z"/>
</g>
</svg>
